<svg t="1715913675916" class="icon" viewBox="0 0 1025 1024" version="1.1" xmlns="http://www.w3.org/2000/svg" p-id="8248" width="200" height="200"><path d="M512.961202 511.8932m-511.8932 0a511.8932 511.8932 0 1 0 1023.786399 0 511.8932 511.8932 0 1 0-1023.786399 0Z" fill="#F6BC33" p-id="8249"></path><path d="M31.185649 685.336671c71.022111 197.366708 259.951606 338.556529 481.775553 338.556529 223.74635 0 413.850647-143.539424 483.484355-343.576137-0.1068-0.1068-0.320401-0.2136-0.427201-0.320401-49.234877-32.467251-152.510638 22.107635-225.668752 49.234877-73.158114 27.127242-117.052983 48.060075-325.95411-10.466416-202.920317-56.710889-401.782228-34.816854-413.209845-33.428452z" fill="#FFFFFF" opacity=".16" p-id="8250"></path><path d="M801.321652 777.398415c-41.758865 6.30121-140.015019-16.767626-321.788903-16.767627-176.006675 0-359.809762 60.662495-371.34418 64.614101 93.663746 120.790989 240.086775 198.755111 404.772633 198.755111 191.279099 0 357.887359-104.984564 445.783896-260.272007-1.602003-1.174802-3.204005-2.242804-4.912808-2.990404-35.457655-16.874426-110.751773 10.359616-152.510638 16.660826z" fill="#FFFFFF" opacity=".2" p-id="8251"></path><path d="M512.961202 1023.8932c174.831873 0 329.051314-87.682937 421.433458-221.396746-2.242804-2.563204-4.378807-4.699207-6.62161-6.40801-39.729662-29.263246-206.871923 18.796829-355.217355 52.225281-148.345432 33.428452-215.202336 35.564456-321.788903-27.127242S79.352524 781.456821 79.352524 781.456821s-0.2136 0.747601-0.427201 1.815603c90.566542 144.500626 250.980392 240.620776 434.035879 240.620776z" fill="#FFFFFF" opacity=".39" p-id="8252"></path><path d="M756.572382 447.065499c10.146016-40.584063-1.708803-114.810179-1.708803-114.81018s-23.709637 22.321235-20.185231-2.776804c3.524406-25.098039-22.962036-146.316229-32.787651-95.372549-9.718815 50.836879-92.595745 49.982478-92.595745 49.982478s7.689612-44.428869 2.776804-31.185649-53.613684 31.185649-53.613683 31.185649c-14.738423-2.563204-29.904047-4.058406-45.496871-4.058406-144.180225 0-261.126408 116.946183-261.126409 261.126408s116.946183 261.126408 261.126409 261.126408 261.126408-116.946183 261.126408-261.126408c0-33.214852-6.30121-64.934501-17.515228-94.090947z" fill="#FFFFFF" p-id="8253"></path><path d="M432.433876 636.956195h-33.214852v-64.4005h-66.429704v64.4005h-33.214852v-155.928243h33.214852v62.905298h66.429704v-62.905298h33.214852v155.928243zM459.133917 561.021277c0-24.457238 7.155611-44.322069 21.360034-59.701294s33.108052-22.962036 56.497288-22.962036c22.321235 0 40.263663 7.369212 53.827284 22.214435 13.563621 14.845223 20.398832 33.855653 20.398832 57.24489 0 24.350438-7.048811 44.001669-21.253233 59.167292-14.097622 15.165624-32.680851 22.748436-55.536087 22.748436-22.321235 0-40.477263-7.369212-54.468085-22.000835-13.777222-14.738423-20.826033-33.535252-20.826033-56.710888z m34.923655-1.815603c0 15.165624 3.631206 27.554443 11.000417 37.166458 7.369212 9.612015 17.408427 14.418023 30.117647 14.418022 13.02962 0 23.175636-4.592407 30.438048-13.884021 7.262411-9.184814 10.893617-21.680434 10.893617-37.166458 0-16.233625-3.524406-29.049645-10.573217-38.554861-7.048811-9.398415-16.981227-14.204422-29.797246-14.204422-13.02962 0-23.282436 4.806008-30.758448 14.524823s-11.320818 22.321235-11.320818 37.700459zM736.387151 508.155194h-44.53567v128.801001h-33.321652V508.155194H614.10096v-27.234043h122.286191v27.234043z" fill="#F6BC33" p-id="8254"></path></svg>